<?xml version="1.0" encoding="utf-8"?>
<!-- Generator: Adobe Illustrator 21.0.0, SVG Export Plug-In . SVG Version: 6.00 Build 0)  -->
<svg version="1.1" xmlns="http://www.w3.org/2000/svg" xmlns:xlink="http://www.w3.org/1999/xlink" x="0px" y="0px"
	 viewBox="0 0 1372 1338" style="enable-background:new 0 0 1372 1338;" xml:space="preserve">
<style type="text/css">
	.st0{fill:#E51C1C;}
	.st1{fill:#FFFFFF;}
	.st2{fill:#F6D155;}
	.st3{fill:#C3BDC9;}
	.st4{fill:#D6D4D5;}
	.st5{fill:#DFDDE2;}
	.st6{fill:#D2D1D3;}
	.st7{fill:#A7A7A8;}
	.st8{fill:#9D9CA0;}
	.st9{fill:#C3BEC9;}
	.st10{fill:#F1EEF0;}
	.st11{fill:#AFADB2;}
	.st12{fill:#B6B1BF;}
	.st13{fill:#96949B;}
	.st14{fill:#DFA12F;}
	.st15{fill:#DEA12F;}
	.st16{fill:#E1A02F;}
	.st17{fill:#892B2B;}
	.st18{fill:#BAB9B9;}
	.st19{fill:#603813;}
	.st20{fill:#E5BD5A;}
	.st21{fill:none;stroke:#000000;stroke-width:0.25;stroke-miterlimit:10;}
</style>
<g id="Warstwa_2">
	<path class="st0" d="M162.8,134.6c170.2-9,340.3-18,510.5-27c47.1,322.6,94.2,645.2,141.4,967.9c-170.9,16.9-341.7,33.7-512.6,50.6
		C255.6,795.6,209.2,465.1,162.8,134.6z"/>
	<path id="path3358" class="st1" d="M851.8,427.5c-32.8,56.3-46.8,60.3-190.6,38.2c-113.7-11.3-216.1-43.5-220.8,59.6
		c37.6,4.5,92.3,8.5,116.1,88.9l-69.6,59.4c-49.2,7.7-126.7,73.5-177.9,12.3c-14.1,57.5,38.7,73.7,93.8,71.4
		c38.6-4,50.9-14.3,123-28.6l19.1,20.5c66.8,19.9,88.9,58.4,94.3,68.7c36.5,70.6-4.6,187.3-119.4,261.7c3.8,9.8,10.2,22.8,21,36
		c6.1,7.5,12.4,13.4,18,18c121-6,242-12,363-18c-20.3-36.4-22.3-71.8-5.8-87.8c3.2-3.1,8.1-6.4,15.7-8.3
		c-34.1-31.4-22.8-89.5-5.6-272.7c3.5-79.8-13-119.8-30.5-133.5c10.6-5.4,17.5-14,12-33.9c38.1-6.7,22-53.3,6.3-68.3
		C901.8,528,893,531.1,887,530.3C864,527.1,855.1,461.5,851.8,427.5z M1005.9,2395.4c1.3,1.5,2.6,3,3.9,4.4c-1.3-1.3-2.6-2.7-4-4.1
		C1005.9,2395.5,1005.9,2395.5,1005.9,2395.4L1005.9,2395.4z M226,2401c-3.7,13.8,2.9,51.6,3.7,76.7c12.6,6.2,34.9-0.2,60.5-10
		c-1.4,0.6-2.7,1.2-4.1,1.8c-19.2,7.1-42.2,14.4-56.6,8.6L225,2422c-1-6.3-0.9-13.2,0.9-20.9C225.9,2401.1,226,2401.1,226,2401
		L226,2401z M216.6,2403.7c-2.1,0.6-4.3,1.2-6.5,1.6C212.2,2404.8,214.4,2404.3,216.6,2403.7z M1022.1,2410.5
		c28.2,20.6,63,21.2,75.8,18.1c0.7-1.6,1.4-3.2,1.9-4.8c-0.5,1.8-1,3.7-1.5,5.5C1071.7,2433.4,1046.1,2429,1022.1,2410.5
		L1022.1,2410.5z M51.2,2880.6C51.2,2880.6,51.2,2880.6,51.2,2880.6L51.2,2880.6C51.2,2880.6,51.2,2880.6,51.2,2880.6L51.2,2880.6z
		 M773.8,2911.9c26.5,27.8,128.6,103.4,247.1,66.8c9.8,67-47,92.2-92,83C885.1,3052.8,819,3017.8,773.8,2911.9L773.8,2911.9z"/>
</g>
<g id="svg2" xmlns:svg="http://www.w3.org/2000/svg">
	<path id="path3360" class="st2" d="M396.8,196.5c51.5,89.8,72.1,174.9,100.6,256.1c47.1-6.4,101,6.4,154.4,10.2
		c60.9,12,109.1,17.1,154.4,10.2C834,345,858,281,913.3,191c-24.5,16.7-76.8,23.5-97.3,53.8c-30.7-27.3-55-10.2-70.3,18.7
		c5.2-23.1-1.7-42.6-31.9-44.5c17.9-33.6-9.7-50.2-38.5-35.2c-0.8-29.2-24.2-29.5-25.8-45.1c-3.9,18.1-24.4,9.1-21.4,52.8
		c-23.3-18.7-46.1-6.5-37.4,26.4c-28.3-0.1-36.2,23.2-33.5,52.2c-19.4-45-55.8-31.3-68.7-15.4C465.8,209.9,448.6,238.2,396.8,196.5
		L396.8,196.5z"/>
	<path id="path3407" class="st1" d="M1246.4,1095.3l-109.2-35.2c5.4,26.3,37.5,56.1,61.9,66
		C1204.4,1121.4,1228.5,1099.3,1246.4,1095.3L1246.4,1095.3z"/>
	<path id="path3434" class="st3" d="M341.5,718.1c106.2,56.8,228.5-72.9,314.4-2.5c9.3,0.5,10.5-6.4,9-12.3
		C565.1,613.8,458.8,745.6,341.5,718.1L341.5,718.1z"/>
	<path id="path3569" class="st4" d="M636.8,1115.7C781.6,1005.9,847.5,851.5,805,735.3c-9.1-24.9-29-63.9-76.8-101.5
		c20,34.6,45.1,90,49.6,160.8C789,974,657.8,1096.8,636.8,1115.7z"/>
	<path id="path3573" class="st5" d="M708.2,890.4c9.1-13.5,10.8-1,26.4,2.6c-36.4,75.9-98,96.6-131.5,98.2
		C648.5,967.7,690.3,940.6,708.2,890.4z"/>
	<path id="path3575" class="st3" d="M683.8,763.6l7.8,7.8c11-0.5,21.9-0.3,32.9-10.4c0.2,9.5-3.4,13.8-8.2,16.4
		c6.1,55.2,0.1,87.3-7.6,112c9.6-9.7,17.4,4.2,26,3.6c13.7-21.6,37.3-96.9-0.5-162.2C735.3,749.5,715,768.8,683.8,763.6L683.8,763.6
		z"/>
	<path id="path3577" class="st3" d="M554.2,739.7c60.3-24.5,94.7,18.6,121.7,22.7c43,63.3-1.6,118.3-30.4,152.1
		C664.7,881.7,692.8,750.1,554.2,739.7z"/>
	<path id="path3585" class="st6" d="M782.4,640.8c181.9,118.3,25.9,357-42.2,421.2C767.1,1001.7,931.1,835.7,782.4,640.8z"/>
	<path id="path3587" class="st7" d="M843.6,575.4c18.6,34.2,48.6,88,4.5,77.3c13.3,28.9,32.9,81.8,30.7,149.5
		c-3.6,108.4-60.6,182.2-80.8,206c20.4-20.4,40.9-40.8,61.3-61.3c10.8,30.9,27.3,49.6,47,61.6C871.6,887,980.1,647.3,843.6,575.4
		L843.6,575.4z"/>
	<path id="path3591" class="st8" d="M817.5,528.2c17.1,1.2,58,29.9,96.1-0.5c26.2,35.6-22.6,65.8-73.9,39.1
		C826.3,558.2,868.8,554.2,817.5,528.2z"/>
	<path id="path3593" class="st5" d="M513.9,541.1c15.4,17.1,31.1,25.9,45.6,67.2c10.7,0.1,21.4,1.4,32.1,4.5
		C573.5,584.2,551.7,557.8,513.9,541.1z"/>
	<path id="path3595" class="st3" d="M679.3,491.4c158.3,42.2,143.4-31.3,171.8-41.8C879.2,494.5,802,552.8,679.3,491.4z"/>
	<path id="path3597" class="st9" d="M485.9,522.8c-9-3.1-17.2-2.5-22.4-1.9c14.1-113.4,139.8-41.4,207.6,1.1
		C585.5,481,478.3,428.9,485.9,522.8L485.9,522.8z"/>
	<path id="path3599" class="st10" d="M486.3,522.8c-7-128.9,178.8,18.3,264.7,23.5c-59.8,6.8-256.9-124.4-255.8-21.3L486.3,522.8
		L486.3,522.8z"/>
	<path id="path3601" class="st11" d="M498.2,526.5l15.7,6c1.5-11.3,5.8-24.2,11.6-25.4c36.5-7.2,2.3,11.9,8.2,17.9
		c6.9,4.9,14.5,9.7,22.4,14.6c0.4-5.5,0.7-11.9,1.1-19.4c0.6-29.4,84.9,17.9,144.1,37.3c6.5,17.5-32.8,39.5-63.9,33.2
		c28.2,22.3,87.6,11.5,113.1-25c45.5,3.5,55.5-4,65.7-15.3c-34.8-7.2-50.8,9.9-138-14.2C598.3,513.3,500.4,445,498.2,526.5
		L498.2,526.5z"/>
	<path id="path3603" class="st12" d="M570.7,511.9c9.8-0.9,18.8,2.4,27.6,6.3c-17.7,27.5,8.3,53.7,22.8,49.7
		c4.9,4.5,9.9,9,26.5,13.4C624.2,586.3,545.8,562.1,570.7,511.9L570.7,511.9z"/>
	<path id="path3665" class="st2" d="M363.4,670.7c-87.8-169,166.3-198.8,192-59c0,0,63,2.5,118.7,32.1
		c108.4,78.7,42.6,123.7,20.7,120.1c-50.5,0.9-60-47.6-133.8-29.1c-17.7,6.6-18.7,15.7-26.6,15.5c-44-11.2,36.7-99.5,123.2-35.8
		c7.7,5.7,24.6-5.4,9.7-22c-58.1-58.6-158.7-26.4-180.7-20.9C458.5,625.8,396.4,636.3,363.4,670.7L363.4,670.7z"/>
	<path id="path3605" class="st13" d="M615.5,532.9c11,8.8,67,17.9,68.3,23.1C665.9,598.3,607.3,585.3,615.5,532.9z"/>
	<path id="path3667" class="st14" d="M447.8,581.4c15.8,23.6,42.3-6.6,86.6,40l5.2-2.2c-10-40.1-37-64.4-76.9-68.7
		c17,14.9,4.6,15.8,4,25.4C466.1,584.2,466.9,594.4,447.8,581.4z"/>
	<path id="path3669" class="st14" d="M377.6,653.8c24.1-13.1,76.5-32.7,109.8,14.2c104.9-30.7,179-2.5,189.3,39.6
		c6.5-11.5-23.1-74.9-142.6-64.2C431.9,572,374.1,636.5,377.6,653.8L377.6,653.8z"/>
	<path id="path3671" class="st15" d="M537.4,743.8c-18.2-0.8,38.5-67.8,131.4-3.7c33.3,13,49.2-4,42.9-31.4
		c-2.2-20.2-13.4-31.4-20.2-47c46.7,35.1,52.4,78.4,20.8,95.8C663.2,782,628.6,694.7,537.4,743.8L537.4,743.8z"/>
	<path id="path3741" class="st14" d="M489.7,263c15.2,26.5-27,105.9,45.6,94c24.6,15.5,46.7,7.1,57.7,7.1
		c48.1-16.7,46.7-49.9,49.7-58.8c-41.7-58.7,5-69.9,10.2-73.6c25.8,3.1,39.1,50.8,4.4,65.9c2.7,2.2,7,1.8,12.6-1.1
		c-0.5,76.3,53.7,81.6,91.2,69.2c74,20.2,38.1-65.3,73.1-129.1c-39.7,69.9-14.1,133.4-72,125.3c14.9-36.1-24.4-64.2-4.9-103.3
		c-30.2,25.8,20,73.5,0,98.4c-20.4,17.9-40.2,3-40.7-4.9c-8.3-25.9,50.8-57.3,15.4-105c12.1,25.8,7.9,37.4,1.4,53.8
		c-6.5,16.4-31.5,31.2-20.1,63.8c-25.9-5.1-39.4-35.9-32.2-60.1c7.1-23.9,19.2-64-26.1-77c-57.2,17.2-28.1,62.4-21.2,70.5
		c14,15.2-11.7,61.1-43.9,60.8c14.7-22.5-2.7-27.1-24.5-62.9c-1.6,19.1,43.3,44.8,17.6,59.9c-13.2,10.5-31.9,4.3-39.6-3.3
		C529,336,564,316.7,557.5,285c-9.4,46.6-22.9,43.8-21.2,65.9c-16.8,4.8-34.4,10.9-39.9-21.3C496.8,285.5,496,258.4,489.7,263
		L489.7,263z"/>
	<path id="path3743" class="st14" d="M787,443l0.8,4.7c-88.7,5.7-178.9-11.2-266-13.2v-4.1C609.9,432.5,679.5,448,787,443L787,443z"
		/>
	<path id="path3745" class="st14" d="M650.4,458.1l-0.3,3.6c50.9,8,101.9,16,144.2,11.8v-3.8C743.3,476,697.3,465.7,650.4,458.1z"/>
	<path id="path3747" class="st16" d="M528.7,385c-14.1,4.5-7.4,25.1-0.3,25c16.2,0.8,32.4,3.1,48.6,0.5c9.2-4.3,12.2-20.6,1.9-27.2
		C561.9,381.2,545,381.3,528.7,385L528.7,385z M525.7,382.2c28-5.4,53.5-1.9,67.9,0.8c12.9,3.4,12.9,25.9,0,30.5
		c-14.6,1.3-46.1,1-67.6-0.8C511.8,401,519.2,386.9,525.7,382.2L525.7,382.2z"/>
	<path id="path3749" class="st16" d="M626.2,407.2c36.5,4.8,67.4,7.6,59.6-20.9C675.4,386.5,605.1,370.7,626.2,407.2z M625.1,411.1
		c-4.9-5.2-11.8-16.4,1.6-30.2c20.4-1.4,41.2-0.2,62.4,2.7c19.4,8,17.7,25.3,1.6,32.7C656.5,416.3,638.3,414,625.1,411.1
		L625.1,411.1z"/>
	<path id="path3751" class="st16" d="M724.8,412.5c36,7.7,66.3,14.5,60.8-14.6C775.3,397.2,706.8,374.4,724.8,412.5z M723.4,416.3
		c-4.5-5.6-10.4-17.3,4.1-30c51.7,2.7,43,3.3,61.9,7.8c18.7,9.6,15.6,26.7-1,32.7C743.6,427.7,735.9,420.4,723.4,416.3L723.4,416.3z
		"/>
	<path class="st17" d="M1030.7,541c33.4-49.7,80.5-118.8,138.4-200.7c82.2-116.2,114.7-162.9,110.2-166.7
		c-3.9-3.3-36.7,24.4-172.4,172.4c0,0-52.8,63.4-84.8,101.7c-18.8,22.6-37.7,45.2-56.5,67.8c4.4-1.9,16.5-6.3,31.1-2.8
		C1019.5,518.2,1029.4,538.2,1030.7,541z"/>
	<path class="st18" d="M974.2,608.8c25.2-24.1,43.5-48.1,56.5-67.8c-1.3-2.8-11.2-22.8-33.9-28.3c-14.6-3.5-26.6,0.9-31.1,2.8
		c-9.3,10-18.9,21.3-28.3,33.9c-26.2,35.2-42.8,70-53.7,98.9c6.1,5.1,12.2,10.2,18.4,15.3C922.9,651.4,948.3,633.7,974.2,608.8z"/>
	<path class="st19" d="M883.8,648.4c-7.8-0.4-18.6-0.2-31.1,2.8c-14.6,3.5-25.7,9.4-32.9,14c-8.8,7.6-17.6,15.2-26.4,22.8
		c-15.9,7.1-39.9,14.8-62.2,5.7c-21.4-8.8-32.2-29.5-33.9-28.3c-1.9,1.4,7.9,30.1,31.7,49.2c55.9,44.9,151.2,5.6,162.3-14.8
		c4.5-8.3,7.2-17.6,7.2-17.6c2.1-7.2,3-13.7,3.4-18.8C895.8,658.4,889.8,653.4,883.8,648.4z"/>
	<path class="st20" d="M731.2,693.6c-21.9-9-31.6-29.8-33.9-28.3c-2.9,1.9,8.1,35.7,36.7,59.3c3.7,3.1,6.7,5.2,7.9,6
		c4.5,3.1,16.5,10.9,34.1,15.7c5.7,1.5,13.5,3.2,23,3.7l0,0c2.8,0.1,5.7,0.1,8.8,0c13.7-0.6,25.4-3.8,34.6-7.4
		c6.2-2.4,15.1-6.5,24.3-13.5c16.3-12.3,26.3-27.7,24.6-29.5c-2-2.2-26.7,18.7-32.9,13.6l0,0c-2.5-3.2,30.9-29.9,28.3-33.9
		c-3.4-5.2-87,44.8-90.4,39.6c-2.2-3.4,32.1-26.6,28.3-33.9c-2.2-4.3-16.7-1.3-31.1,2.8C777.5,695.1,753.5,702.7,731.2,693.6z"/>
	<path class="st21" d="M832.5,669"/>
	<path class="st19" d="M916.7,635.3"/>
	<path class="st19" d="M862.3,716.8"/>
</g>
</svg>
